Coordinates
version=1
nRows=13
nColumns=36
inDegrees=yes

Units are S.I. units (second, meters, Newtons, ...)
If the header above contains a line with 'inDegrees', this indicates whether rotational values are in degrees (yes) or radians (no).

endheader
time	pelvis_tilt	pelvis_list	pelvis_rotation	pelvis_tx	pelvis_ty	pelvis_tz	hip_flexion_r	hip_adduction_r	hip_rotation_r	knee_angle_r	knee_angle_r_beta	ankle_angle_r	subtalar_angle_r	mtp_angle_r	hip_flexion_l	hip_adduction_l	hip_rotation_l	knee_angle_l	knee_angle_l_beta	ankle_angle_l	subtalar_angle_l	mtp_angle_l	lumbar_extension	lumbar_bending	lumbar_rotation	arm_flex_r	arm_add_r	arm_rot_r	elbow_flex_r	pro_sup_r	arm_flex_l	arm_add_l	arm_rot_l	elbow_flex_l	pro_sup_l
      1.88333330	      4.84639895	      7.72186072	     -6.06221982	      0.82445112	      0.93371717	      0.09356117	     -0.96221910	     -2.73231672	      7.19361650	      7.79150735	      0.13598746	     13.36176785	      8.07785534	     -7.49999651	     36.31079104	     -9.38229149	     -5.62451362	     16.43677766	      0.28687589	     -4.90430403	     -9.10976386	     -7.49999651	    -13.46615895	     -6.16741774	      7.83842614	     55.95196973	      5.88966867	     66.69544748	    121.86964662	     85.48362062	     70.54443011	     10.52608562	     71.00214649	    123.30961036	     60.98912861
      1.90000000	      4.69902979	      7.72532345	     -6.08011406	      0.82466355	      0.93369882	      0.09306677	     -0.83166652	     -2.71694980	      7.42503378	      7.70334715	      0.13444877	     13.37660713	      7.58151070	     -7.49999735	     36.45559202	     -9.29563989	     -5.29865808	     16.43668868	      0.28687434	     -4.54566304	     -8.80547418	     -7.49999735	    -13.30310778	     -6.05973761	      7.78811614	     55.82473450	      6.05700426	     66.65039325	    121.57521152	     89.61728234	     70.38150938	      9.78844229	     70.63295337	    123.45314907	     61.18782321
      1.91666670	      4.61182154	      7.80663092	     -6.14061349	      0.82485943	      0.93566167	      0.09292877	     -0.80765933	     -2.78191329	      7.56968038	      7.61099906	      0.13283699	     13.26171780	      7.27062438	     -7.49999782	     36.39694739	     -9.27362273	     -5.18007824	     16.49147995	      0.28783062	     -4.30794719	     -8.97066105	     -7.49999782	    -13.24324656	     -6.13067280	      7.78218184	     55.69171520	      5.97803434	     66.76361488	    121.53957630	     87.11799606	     70.09500474	      9.22826402	     70.52525634	    123.85246837	     61.22250743
      1.93333330	      4.58884028	      7.74412288	     -6.02335659	      0.82484128	      0.93324790	      0.09290192	     -0.68199502	     -2.58881550	      7.48982255	      7.80194351	      0.13616960	     12.92132335	      6.77958432	     -7.49999795	     36.35555530	     -9.19771448	     -4.81771469	     16.68012107	      0.29112303	     -4.09574746	     -9.39836064	     -7.49999795	    -13.24949125	     -6.06231465	      7.65945401	     55.48845106	      5.94893095	     66.53328999	    121.48287329	     86.89053086	     69.95029325	      8.81591783	     70.37385638	    124.13849374	     61.28255772
      1.95000000	      4.45552743	      7.79310105	     -5.96417239	      0.82518912	      0.93311397	      0.09311063	     -0.15105646	     -2.57167734	      7.34657811	      8.57728366	      0.14970184	     12.96745673	      6.37377476	     -7.49999808	     36.45818607	     -9.09999023	     -4.70171843	     17.02035718	      0.29706127	     -3.87254975	     -9.56324941	     -7.49999808	    -13.06968763	     -6.17572356	      7.52514260	     55.25398036	      6.35541252	     66.78068367	    121.52740380	     86.11934921	     69.87097142	      8.54254636	     70.18191846	    124.38851262	     61.30910754
      1.96666670	      4.36694224	      7.67744738	     -5.91545985	      0.82557246	      0.93071508	      0.09301823	      0.33917924	     -2.34043440	      7.15552463	      9.30069772	      0.16232780	     13.02412658	      5.84827019	     -7.49999828	     36.53122488	     -9.12890822	     -4.57264122	     17.05622487	      0.29768728	     -3.98514970	     -9.44214470	     -7.49999828	    -12.95865271	     -6.08195705	      7.51504300	     55.42174052	      6.83131646	     66.99892351	    121.26503170	     84.53114331	     70.00946066	      8.38593756	     69.83411007	    124.68749263	     61.32289717
      1.98333330	      4.66587135	      7.67690770	     -5.68301728	      0.82522126	      0.93135799	      0.09302740	      0.62434691	     -2.21870424	      6.94285301	     10.23745839	      0.17867736	     13.03820127	      5.39626898	     -7.49999848	     36.07229824	     -8.86570113	     -4.53691578	     16.46160981	      0.28730929	     -4.34439698	     -9.41868227	     -7.49999848	    -13.45564121	     -6.06570869	      7.21735687	     56.19236029	      7.23967933	     67.22154821	    120.88759305	     83.72092627	     70.77511482	      8.16219712	     69.73270166	    125.06533445	     61.47358630
      2.00000000	      4.69916813	      7.52864490	     -5.45235653	      0.82523845	      0.92898471	      0.09214109	      1.01537201	     -1.93670145	      6.93152121	     11.04276452	      0.19273260	     13.23940422	      4.96850113	     -7.49999859	     35.85116505	     -8.75032028	     -4.56962440	     15.82187863	      0.27614388	     -4.53424277	     -8.98967813	     -7.49999859	    -13.58445856	     -5.85037477	      6.97604990	     56.39092146	      7.46053461	     67.12126014	    120.78616636	     83.34406081	     71.15091822	      7.89631416	     69.40577326	    125.16998705	     61.56149646
      2.01666670	      4.76759263	      7.42873288	     -5.02960853	      0.82485724	      0.92666261	      0.09244685	      1.21094708	     -1.65298336	      6.87009906	     11.72797821	      0.20469183	     13.43462417	      4.30646073	     -7.49999892	     35.67461586	     -8.49140964	     -4.38046562	     15.25928129	      0.26632470	     -4.37008260	     -8.26359288	     -7.49999892	    -13.75176445	     -5.77396402	      6.65561081	     56.90208952	      7.64800411	     66.86633767	    120.49928968	     89.64996528	     71.81738702	      7.76744063	     69.24171394	    125.02412936	     62.66598125
      2.03333330	      4.85731604	      7.31244919	     -4.60856147	      0.82461736	      0.92728131	      0.09158666	      1.46209485	     -1.34009597	      6.81853449	     12.66416770	      0.22103142	     13.96002538	      3.41708550	     -7.49999906	     35.66026647	     -8.24092819	     -4.10597596	     15.40456513	      0.26886038	     -4.39256586	     -8.35680148	     -7.49999906	    -13.92668921	     -5.65099078	      6.39599143	     57.09769650	      7.73308145	     67.04103521	    120.50225334	     87.71687141	     72.34595103	      7.69727574	     69.39171378	    124.59849088	     62.53578873
      2.05000000	      4.88543942	      7.29284149	     -3.90832380	      0.82410562	      0.92254435	      0.09164621	      1.70635687	     -1.02908413	      6.33905838	     13.46796156	      0.23506027	     14.52103745	      2.29628005	     -7.49999905	     35.94190182	     -7.80146977	     -4.37423051	     15.52839532	      0.27102163	     -4.33529568	     -8.50485616	     -7.49999905	    -13.99996874	     -5.75241681	      5.95146049	     57.26725130	      7.84812318	     66.95674967	    120.65323031	     87.20329065	     73.02927346	      7.76726797	     69.45859939	    123.93537784	     62.63468906
      2.06666670	      4.66574441	      7.37188245	     -3.11260295	      0.82384306	      0.92106460	      0.09067203	      2.08507296	     -0.83881597	      5.82133613	     14.20646881	      0.24794966	     15.34253700	      1.54286654	     -7.49999911	     36.47424317	     -7.33484488	     -4.77413544	     15.86433937	      0.27688496	     -4.35081706	     -9.04842860	     -7.49999911	    -13.93270250	     -5.81859477	      5.66502012	     57.41904644	      8.07868924	     67.10205325	    120.48197514	     86.30823266	     73.32088741	      7.93052878	     69.70993867	    123.55414256	     62.54408971
      2.08333330	      4.54819312	      7.08771497	     -2.63742713	      0.81913940	      0.91656120	      0.08700559	      2.70776033	     -0.37125617	      5.41824358	     15.30777873	      0.26717114	     16.05723319	      0.73817128	     -7.49999920	     37.12271954	     -7.18049985	     -5.16237974	     16.22901044	      0.28324967	     -4.38950078	     -9.57892103	     -7.49999920	    -14.22671085	     -5.53859634	      5.75977778	     58.03395913	      7.82196325	     66.97134810	    120.72936443	     88.78653318	     74.28896778	      8.82443563	     69.90970349	    122.46705120	     62.96679929
